<?xml version="1.0" encoding="UTF-8" standalone="no"?>
<svg
   xmlns:dc="http://purl.org/dc/elements/1.1/"
   xmlns:cc="http://creativecommons.org/ns#"
   xmlns:rdf="http://www.w3.org/1999/02/22-rdf-syntax-ns#"
   xmlns:svg="http://www.w3.org/2000/svg"
   xmlns="http://www.w3.org/2000/svg"
   xmlns:sodipodi="http://sodipodi.sourceforge.net/DTD/sodipodi-0.dtd"
   xmlns:inkscape="http://www.inkscape.org/namespaces/inkscape"
   version="1.1"
   x="0px"
   y="0px"
   viewBox="0 0 192 192"
   enable-background="new 0 0 1000 1000"
   xml:space="preserve"
   id="svg850"
   sodipodi:docname="dicey.svg"
   inkscape:version="1.0.2 (e86c8708, 2021-01-15)"
   width="192"
   height="192"><defs
   id="defs854" /><sodipodi:namedview
   pagecolor="#ffffff"
   bordercolor="#666666"
   borderopacity="1"
   objecttolerance="10"
   gridtolerance="10"
   guidetolerance="10"
   inkscape:pageopacity="0"
   inkscape:pageshadow="2"
   inkscape:window-width="1792"
   inkscape:window-height="1067"
   id="namedview852"
   showgrid="false"
   inkscape:zoom="1.424"
   inkscape:cx="222.4796"
   inkscape:cy="171.16431"
   inkscape:window-x="0"
   inkscape:window-y="345"
   inkscape:window-maximized="1"
   inkscape:current-layer="svg850"
   inkscape:document-rotation="0"
   fit-margin-top="0"
   fit-margin-left="0"
   fit-margin-right="0"
   fit-margin-bottom="0" />
<metadata
   id="metadata830"> Svg Vector Icons : http://www.onlinewebfonts.com/icon <rdf:RDF><cc:Work
     rdf:about=""><dc:format>image/svg+xml</dc:format><dc:type
       rdf:resource="http://purl.org/dc/dcmitype/StillImage" /><dc:title /></cc:Work></rdf:RDF></metadata>
<g
   id="g848"
   transform="matrix(0.11077717,0,0,0.11077717,40.418264,40.611983)"
   style="stroke-width:9.02709"
   inkscape:export-filename="/Users/sina/logo192.png"
   inkscape:export-xdpi="255.99963"
   inkscape:export-ydpi="255.99963"><g
     transform="matrix(0.1,0,0,-0.1,0,472)"
     id="g846"
     style="stroke-width:9.02709"><path
       d="M 2562.2,4012.2 C 1002.7,3621.8 207.4,3412.1 178.3,3387.2 157.5,3368.5 128.5,3318.7 116,3277.2 101.5,3227.4 97.3,2249.3 101.5,260 l 6.2,-2944.6 62.3,-62.3 c 91.4,-91.4 4935.9,-2415 5035.6,-2415 43.6,0 114.2,24.9 176.5,62.3 58.1,35.3 1067.4,564.8 2242.7,1177.4 1177.4,612.6 2157.5,1129.6 2182.4,1150.4 22.9,18.7 54,68.5 66.4,105.9 33.2,91.4 35.3,5828.9 4.2,5943.1 -12.5,41.5 -39.5,91.4 -62.3,112.1 C 9765.7,3432.9 5110.1,4604 4987.6,4602 4941.9,4599.9 3849.7,4336.2 2562.2,4012.2 Z M 7012.2,3680 8933,3200.3 8839.6,3167.1 C 8787.7,3150.5 7950.8,2857.7 6979,2519.2 6007.2,2180.7 5203.6,1904.5 5193.2,1904.5 c -33.2,0 -4076.2,1295.8 -4067.9,1304.1 4.2,4.2 874.2,226.4 1935.3,492.1 1196.1,299 1945.7,479.7 1978.9,471.4 29.1,-6.2 915.8,-228.4 1972.7,-492.1 z m -4090.7,-1501.4 2066.2,-662.4 6.2,-3067 c 2.1,-1686.2 -2.1,-3065 -10.4,-3062.9 -10.4,0 -1011.3,479.7 -2228.1,1065.3 l -2211.6,1063.1 -6.2,2712 -4.2,2712 159.9,-49.8 C 782.6,2861.8 1785.6,2542 2921.5,2178.6 Z M 9462.6,218.4 V -2487.3 L 7460.8,-3529.8 C 6360.2,-4105 5448.6,-4574.3 5436.2,-4574.3 c -35.3,0 -33.2,6076 4.1,6098.8 31.1,20.8 3962,1393.3 3997.3,1395.4 18.7,2.1 25,-552.3 25,-2701.5 z"
       id="path832"
       style="stroke-width:9.02709" /><path
       d="m 4915,3563.7 c -274.1,-31.2 -477.6,-164.1 -477.6,-307.3 0,-72.7 118.4,-182.7 245,-232.6 166.1,-62.3 581.4,-78.9 770.4,-31.2 182.7,47.8 294.9,112.1 342.6,201.4 35.3,66.4 37.4,83.1 12.5,141.2 -29.1,72.7 -153.7,155.7 -296.9,199.3 -122.6,35.4 -413.3,49.9 -596,29.2 z"
       id="path834"
       style="stroke-width:9.02709" /><path
       d="M 3374.2,741.7 C 3079.3,585.9 3137.4,17 3480.1,-302.9 c 238.8,-220.1 473.5,-238.8 639.6,-49.8 87.2,99.7 118.4,243 87.2,425.7 -74.8,473.5 -521.3,832.7 -832.7,668.7 z"
       id="path836"
       style="stroke-width:9.02709" /><path
       d="m 2319.3,-51.6 c -130.8,-68.5 -186.9,-182.7 -186.9,-380 0,-627.1 679,-1092.2 930.3,-637.5 122.5,220.1 22.8,623 -213.9,863.9 -174.4,180.6 -369.6,236.7 -529.5,153.6 z"
       id="path838"
       style="stroke-width:9.02709" /><path
       d="m 1287.2,-813.7 c -245,-153.7 -197.3,-670.7 87.2,-976 228.4,-245 523.3,-259.6 641.6,-33.2 62.3,118.4 60.2,390.4 -6.2,554.4 -62.3,159.9 -189,323.9 -313.6,409.1 -134.9,93.5 -305.1,110.1 -409,45.7 z"
       id="path840"
       style="stroke-width:9.02709" /><path
       d="m 6991.5,384.5 c -292.8,-143.3 -512.9,-569 -454.8,-876.3 37.4,-203.5 137.1,-305.3 313.6,-319.8 431.9,-35.3 851.4,674.9 631.3,1067.4 C 7386,428.1 7186.7,480 6991.5,384.5 Z"
       id="path842"
       style="stroke-width:9.02709" /><path
       d="m 8268.6,-533.3 c -207.7,-95.5 -402.9,-380 -446.5,-647.9 -51.9,-303.2 87.2,-527.5 326,-527.5 255.4,2.1 546.1,324 612.6,677 56.1,303.2 -85.1,548.2 -315.6,548.2 -39.5,0 -118.4,-22.8 -176.5,-49.8 z"
       id="path844"
       style="stroke-width:9.02709" /></g></g>
<g
   aria-label="{"
   id="text1458"
   style="font-style:normal;font-weight:normal;font-size:40px;line-height:1.25;font-family:sans-serif;fill:#000000;fill-opacity:1;stroke:none;stroke-width:0.475153"
   transform="matrix(1.4282098,0,0,3.1012963,364.03254,-191.07271)"><path
     d="m -228.26172,111.58883 h -2.92969 q -3.49609,0 -5.68359,-1.95313 -2.16797,-1.93359 -2.16797,-5.60546 v -2.91016 q 0,-3.300782 -1.62109,-5.156251 -1.6211,-1.875 -4.96094,-1.875 h -0.99609 v -3.046875 h 0.99609 q 3.33984,0 4.96094,-1.855469 1.62109,-1.875 1.62109,-5.175781 v -2.910156 q 0,-3.671875 2.16797,-5.605469 2.1875,-1.953125 5.68359,-1.953125 h 2.92969 v 2.695313 h -2.22656 q -2.65625,0 -3.86719,1.230468 -1.1914,1.230469 -1.1914,3.964844 v 3.417969 q 0,2.714844 -1.50391,4.570312 -1.50391,1.835938 -4.17969,2.910157 v 0.46875 q 2.67578,1.074218 4.17969,2.929687 1.50391,1.835938 1.50391,4.550786 v 3.41796 q 0,2.73438 1.1914,3.96485 1.21094,1.23047 3.86719,1.23047 h 2.22656 z"
     id="path1460"
     style="stroke-width:0.475153" /></g><g
   aria-label="}"
   id="text1465"
   style="font-style:normal;font-weight:normal;font-size:40px;line-height:1.25;font-family:sans-serif;fill:#000000;fill-opacity:1;stroke:none;stroke-width:0.475153"
   transform="matrix(1.4282098,0,0,3.1012966,346.95386,-156.22673)"><path
     d="m -117.03322,82.852882 h -0.99609 q -3.33985,0 -4.96094,1.875 -1.62109,1.855469 -1.62109,5.15625 v 2.910157 q 0,3.671875 -2.1875,5.605468 -2.16797,1.953123 -5.66407,1.953123 h -2.92968 v -2.69531 h 2.22656 q 2.65625,0 3.84766,-1.230469 1.21093,-1.230469 1.21093,-3.964844 v -3.417968 q 0,-2.714844 1.50391,-4.550782 1.50391,-1.855468 4.17969,-2.929687 v -0.46875 q -2.67578,-1.074219 -4.17969,-2.910156 -1.50391,-1.855469 -1.50391,-4.570313 v -3.417969 q 0,-2.734375 -1.21093,-3.964843 -1.19141,-1.230469 -3.84766,-1.230469 h -2.22656 v -2.695313 h 2.92968 q 3.4961,0 5.66407,1.953125 2.1875,1.933594 2.1875,5.605469 v 2.910156 q 0,3.300782 1.62109,5.175782 1.62109,1.855468 4.96094,1.855468 h 0.99609 z"
     id="path1467"
     style="stroke-width:0.475153" /></g></svg>
