<?xml version="1.0" encoding="UTF-8" standalone="no"?>
<svg
   xmlns:dc="http://purl.org/dc/elements/1.1/"
   xmlns:cc="http://creativecommons.org/ns#"
   xmlns:rdf="http://www.w3.org/1999/02/22-rdf-syntax-ns#"
   xmlns:svg="http://www.w3.org/2000/svg"
   xmlns="http://www.w3.org/2000/svg"
   xmlns:sodipodi="http://sodipodi.sourceforge.net/DTD/sodipodi-0.dtd"
   xmlns:inkscape="http://www.inkscape.org/namespaces/inkscape"
   inkscape:export-ydpi="768"
   inkscape:export-xdpi="768"
   inkscape:export-filename="C:\Users\simora\Desktop\SignalProfile.png"
   sodipodi:docname="SignalProfile.svg"
   inkscape:version="1.0beta2 (2b71d25, 2019-12-03)"
   id="svg4601"
   version="1.1"
   viewBox="0 0 33.866668 33.866665"
   height="128"
   width="128">
  <defs
     id="defs4595" />
  <sodipodi:namedview
     units="px"
     inkscape:document-rotation="0"
     inkscape:window-maximized="1"
     inkscape:window-y="23"
     inkscape:window-x="0"
     inkscape:window-height="1395"
     inkscape:window-width="2560"
     fit-margin-bottom="0"
     fit-margin-right="0"
     fit-margin-left="0"
     fit-margin-top="0"
     showgrid="false"
     inkscape:current-layer="layer1"
     inkscape:document-units="px"
     inkscape:cy="72.428188"
     inkscape:cx="131.0528"
     inkscape:zoom="3.959798"
     inkscape:pageshadow="2"
     inkscape:pageopacity="0.0"
     borderopacity="1.0"
     bordercolor="#666666"
     pagecolor="#ffffff"
     id="base" />
  <metadata
     id="metadata4598">
    <rdf:RDF>
      <cc:Work
         rdf:about="">
        <dc:format>image/svg+xml</dc:format>
        <dc:type
           rdf:resource="http://purl.org/dc/dcmitype/StillImage" />
        <dc:title></dc:title>
      </cc:Work>
    </rdf:RDF>
  </metadata>
  <g
     transform="translate(-108.99713,-147.84139)"
     id="layer1"
     inkscape:groupmode="layer"
     inkscape:label="Layer 1">
    <g
       transform="matrix(1.3546667,0,0,1.3546667,-38.657647,-52.434411)"
       id="g5187">
      <rect
         style="fill:#fffffd;fill-opacity:1;stroke:none;stroke-width:0.330729;stroke-opacity:1"
         id="rect5175"
         width="25"
         height="25"
         x="108.99712"
         y="147.84138" />
      <g
         id="g5180"
         transform="translate(-27.425492,0.92471691)">
        <g
           id="g4593"
           transform="translate(103.06459,136.8943)">
          <path
             style="fill:#c5a788;stroke-width:0.176389"
             d="m 40.123707,29.84992 c 0.44395,0.22634 0.47032,0.15932 1.03817,-2.63843 l 0.3064,-1.50959 -0.83626,-0.83626 c -0.46951,-0.46951 -1.08182,-1.35461 -1.39619,-2.01819 -0.52341,-1.10485 -0.55992,-1.30847 -0.55992,-3.12221 0,-1.91167 0.0104,-1.961 0.70555,-3.346605 0.51707,-1.030634 0.89554,-1.538891 1.41671,-1.902539 0.97244,-0.678523 3.62867,-1.541985 4.74099,-1.541154 1.16671,8.73e-4 3.74458,0.422069 4.91539,0.803121 1.57493,0.512579 1.81711,0.962739 1.26298,2.347642 -0.2571,0.642559 -0.25139,0.770936 0.0844,1.899745 0.47494,1.59667 0.71755,3.21182 0.71918,4.78804 10e-4,0.97805 0.0644,1.30857 0.26592,1.38588 0.40483,0.15535 0.31707,1.02911 -0.17639,1.75627 -0.44504,0.65581 -0.49417,0.91717 -0.44558,2.3707 0.0386,1.15508 -0.46995,1.75765 -1.48342,1.75765 -1.30597,0 -2.61348,-0.32608 -3.87787,-0.96711 -0.67142,-0.34041 -1.23761,-0.5994 -1.25821,-0.57555 -0.0835,0.0966 0.200122,3.018069 0.52662,3.11063 2.990825,1.062583 -7.388232,0.435482 -5.94847,-1.76204 z"
             id="path4541-1-0"
             inkscape:connector-curvature="0"
             sodipodi:nodetypes="cccscscsccccccccscccc" />
          <path
             style="fill:#000000;fill-opacity:1;stroke:none;stroke-width:0.176389;stroke-opacity:1"
             d="m 48.815454,29.843228 c -1.22693,-0.23961 -2.97704,-1.17345 -3.3507,-1.78788 -0.35841,-0.58936 -0.63377,-1.9868 -0.79128,-4.01568 -0.30523,-3.93165 -0.28932,-3.88962 -1.20055,-3.17285 -0.60955,0.47947 -0.7539,1.23477 -0.38469,2.01283 0.28223,0.59475 0.27908,0.64432 -0.0761,1.19889 -0.53925,0.84203 -0.94529,1.28497 -1.30372,1.4222 -0.47572,0.18214 -1.80621,-1.24777 -2.47543,-2.66039 -0.52341,-1.10485 -0.55992,-1.30847 -0.55992,-3.12221 0,-1.91167 0.0104,-1.961 0.70555,-3.346605 0.51707,-1.030634 0.89554,-1.538891 1.41671,-1.902539 0.97244,-0.678523 3.62867,-1.541985 4.74099,-1.541154 1.16671,8.73e-4 3.74458,0.422069 4.91539,0.80312 1.57691,0.513221 1.81732,0.962229 1.26042,2.35405 -0.34305,0.857358 -1.08916,1.251878 -2.36753,1.251878 -1.18428,0 -1.98255,0.39009 -2.65738,1.29857 -0.51319,0.69087 -0.53596,0.78974 -0.4259,1.84882 0.15452,1.48692 0.72217,3.49355 1.16367,4.1136 0.48938,0.68726 1.48081,0.67373 3.3463,-0.0457 1.73097,-0.66753 2.28035,-0.60937 2.2716,0.24048 -0.007,0.66528 -0.35447,1.12721 -1.27295,1.69156 -0.7986,0.49069 -0.84442,0.82613 -0.13229,0.96856 0.49154,0.0983 0.52917,0.1609 0.52917,0.8802 0,0.51633 -0.12183,0.92925 -0.36558,1.23913 -0.31566,0.4013 -0.49029,0.46213 -1.27882,0.44544 -0.50228,-0.0106 -1.27043,-0.0891 -1.70699,-0.17434 z"
             id="path4539-0-9"
             inkscape:connector-curvature="0"
             sodipodi:nodetypes="ccssccccscscscscscccscssccc" />
        </g>
      </g>
    </g>
  </g>
</svg>
